<?xml version="1.0" encoding="utf-8"?>
<!DOCTYPE svg PUBLIC "-//W3C//DTD SVG 1.1//EN" "http://www.w3.org/Graphics/SVG/1.1/DTD/svg11.dtd">
<svg xmlns="http://www.w3.org/2000/svg" version="1.1" xml:space="preserve" xmlns:xlink="http://www.w3.org/1999/xlink" width="370" height="370" viewBox="0 0 370 370">
<desc></desc>
<rect width="370" height="370" fill="#ffffff" cx="0" cy="0" />
<defs>
	<rect id="p" width="10" height="10" />
</defs>
<g fill="#000000">
	<use x="40" y="40" xlink:href="#p" />
	<use x="50" y="40" xlink:href="#p" />
	<use x="60" y="40" xlink:href="#p" />
	<use x="70" y="40" xlink:href="#p" />
	<use x="80" y="40" xlink:href="#p" />
	<use x="90" y="40" xlink:href="#p" />
	<use x="100" y="40" xlink:href="#p" />
	<use x="120" y="40" xlink:href="#p" />
	<use x="130" y="40" xlink:href="#p" />
	<use x="210" y="40" xlink:href="#p" />
	<use x="220" y="40" xlink:href="#p" />
	<use x="230" y="40" xlink:href="#p" />
	<use x="240" y="40" xlink:href="#p" />
	<use x="260" y="40" xlink:href="#p" />
	<use x="270" y="40" xlink:href="#p" />
	<use x="280" y="40" xlink:href="#p" />
	<use x="290" y="40" xlink:href="#p" />
	<use x="300" y="40" xlink:href="#p" />
	<use x="310" y="40" xlink:href="#p" />
	<use x="320" y="40" xlink:href="#p" />
	<use x="40" y="50" xlink:href="#p" />
	<use x="100" y="50" xlink:href="#p" />
	<use x="180" y="50" xlink:href="#p" />
	<use x="220" y="50" xlink:href="#p" />
	<use x="240" y="50" xlink:href="#p" />
	<use x="260" y="50" xlink:href="#p" />
	<use x="320" y="50" xlink:href="#p" />
	<use x="40" y="60" xlink:href="#p" />
	<use x="60" y="60" xlink:href="#p" />
	<use x="70" y="60" xlink:href="#p" />
	<use x="80" y="60" xlink:href="#p" />
	<use x="100" y="60" xlink:href="#p" />
	<use x="120" y="60" xlink:href="#p" />
	<use x="150" y="60" xlink:href="#p" />
	<use x="160" y="60" xlink:href="#p" />
	<use x="170" y="60" xlink:href="#p" />
	<use x="180" y="60" xlink:href="#p" />
	<use x="220" y="60" xlink:href="#p" />
	<use x="230" y="60" xlink:href="#p" />
	<use x="240" y="60" xlink:href="#p" />
	<use x="260" y="60" xlink:href="#p" />
	<use x="280" y="60" xlink:href="#p" />
	<use x="290" y="60" xlink:href="#p" />
	<use x="300" y="60" xlink:href="#p" />
	<use x="320" y="60" xlink:href="#p" />
	<use x="40" y="70" xlink:href="#p" />
	<use x="60" y="70" xlink:href="#p" />
	<use x="70" y="70" xlink:href="#p" />
	<use x="80" y="70" xlink:href="#p" />
	<use x="100" y="70" xlink:href="#p" />
	<use x="120" y="70" xlink:href="#p" />
	<use x="130" y="70" xlink:href="#p" />
	<use x="150" y="70" xlink:href="#p" />
	<use x="210" y="70" xlink:href="#p" />
	<use x="240" y="70" xlink:href="#p" />
	<use x="260" y="70" xlink:href="#p" />
	<use x="280" y="70" xlink:href="#p" />
	<use x="290" y="70" xlink:href="#p" />
	<use x="300" y="70" xlink:href="#p" />
	<use x="320" y="70" xlink:href="#p" />
	<use x="40" y="80" xlink:href="#p" />
	<use x="60" y="80" xlink:href="#p" />
	<use x="70" y="80" xlink:href="#p" />
	<use x="80" y="80" xlink:href="#p" />
	<use x="100" y="80" xlink:href="#p" />
	<use x="120" y="80" xlink:href="#p" />
	<use x="130" y="80" xlink:href="#p" />
	<use x="140" y="80" xlink:href="#p" />
	<use x="150" y="80" xlink:href="#p" />
	<use x="170" y="80" xlink:href="#p" />
	<use x="180" y="80" xlink:href="#p" />
	<use x="190" y="80" xlink:href="#p" />
	<use x="200" y="80" xlink:href="#p" />
	<use x="210" y="80" xlink:href="#p" />
	<use x="220" y="80" xlink:href="#p" />
	<use x="230" y="80" xlink:href="#p" />
	<use x="260" y="80" xlink:href="#p" />
	<use x="280" y="80" xlink:href="#p" />
	<use x="290" y="80" xlink:href="#p" />
	<use x="300" y="80" xlink:href="#p" />
	<use x="320" y="80" xlink:href="#p" />
	<use x="40" y="90" xlink:href="#p" />
	<use x="100" y="90" xlink:href="#p" />
	<use x="130" y="90" xlink:href="#p" />
	<use x="160" y="90" xlink:href="#p" />
	<use x="180" y="90" xlink:href="#p" />
	<use x="210" y="90" xlink:href="#p" />
	<use x="230" y="90" xlink:href="#p" />
	<use x="240" y="90" xlink:href="#p" />
	<use x="260" y="90" xlink:href="#p" />
	<use x="320" y="90" xlink:href="#p" />
	<use x="40" y="100" xlink:href="#p" />
	<use x="50" y="100" xlink:href="#p" />
	<use x="60" y="100" xlink:href="#p" />
	<use x="70" y="100" xlink:href="#p" />
	<use x="80" y="100" xlink:href="#p" />
	<use x="90" y="100" xlink:href="#p" />
	<use x="100" y="100" xlink:href="#p" />
	<use x="120" y="100" xlink:href="#p" />
	<use x="140" y="100" xlink:href="#p" />
	<use x="160" y="100" xlink:href="#p" />
	<use x="180" y="100" xlink:href="#p" />
	<use x="200" y="100" xlink:href="#p" />
	<use x="220" y="100" xlink:href="#p" />
	<use x="240" y="100" xlink:href="#p" />
	<use x="260" y="100" xlink:href="#p" />
	<use x="270" y="100" xlink:href="#p" />
	<use x="280" y="100" xlink:href="#p" />
	<use x="290" y="100" xlink:href="#p" />
	<use x="300" y="100" xlink:href="#p" />
	<use x="310" y="100" xlink:href="#p" />
	<use x="320" y="100" xlink:href="#p" />
	<use x="130" y="110" xlink:href="#p" />
	<use x="150" y="110" xlink:href="#p" />
	<use x="170" y="110" xlink:href="#p" />
	<use x="180" y="110" xlink:href="#p" />
	<use x="200" y="110" xlink:href="#p" />
	<use x="210" y="110" xlink:href="#p" />
	<use x="240" y="110" xlink:href="#p" />
	<use x="40" y="120" xlink:href="#p" />
	<use x="50" y="120" xlink:href="#p" />
	<use x="60" y="120" xlink:href="#p" />
	<use x="70" y="120" xlink:href="#p" />
	<use x="100" y="120" xlink:href="#p" />
	<use x="120" y="120" xlink:href="#p" />
	<use x="170" y="120" xlink:href="#p" />
	<use x="180" y="120" xlink:href="#p" />
	<use x="200" y="120" xlink:href="#p" />
	<use x="210" y="120" xlink:href="#p" />
	<use x="230" y="120" xlink:href="#p" />
	<use x="250" y="120" xlink:href="#p" />
	<use x="280" y="120" xlink:href="#p" />
	<use x="290" y="120" xlink:href="#p" />
	<use x="300" y="120" xlink:href="#p" />
	<use x="320" y="120" xlink:href="#p" />
	<use x="40" y="130" xlink:href="#p" />
	<use x="60" y="130" xlink:href="#p" />
	<use x="80" y="130" xlink:href="#p" />
	<use x="90" y="130" xlink:href="#p" />
	<use x="120" y="130" xlink:href="#p" />
	<use x="130" y="130" xlink:href="#p" />
	<use x="200" y="130" xlink:href="#p" />
	<use x="220" y="130" xlink:href="#p" />
	<use x="230" y="130" xlink:href="#p" />
	<use x="240" y="130" xlink:href="#p" />
	<use x="250" y="130" xlink:href="#p" />
	<use x="260" y="130" xlink:href="#p" />
	<use x="270" y="130" xlink:href="#p" />
	<use x="280" y="130" xlink:href="#p" />
	<use x="320" y="130" xlink:href="#p" />
	<use x="50" y="140" xlink:href="#p" />
	<use x="60" y="140" xlink:href="#p" />
	<use x="80" y="140" xlink:href="#p" />
	<use x="90" y="140" xlink:href="#p" />
	<use x="100" y="140" xlink:href="#p" />
	<use x="110" y="140" xlink:href="#p" />
	<use x="120" y="140" xlink:href="#p" />
	<use x="180" y="140" xlink:href="#p" />
	<use x="210" y="140" xlink:href="#p" />
	<use x="240" y="140" xlink:href="#p" />
	<use x="250" y="140" xlink:href="#p" />
	<use x="280" y="140" xlink:href="#p" />
	<use x="300" y="140" xlink:href="#p" />
	<use x="310" y="140" xlink:href="#p" />
	<use x="70" y="150" xlink:href="#p" />
	<use x="120" y="150" xlink:href="#p" />
	<use x="150" y="150" xlink:href="#p" />
	<use x="160" y="150" xlink:href="#p" />
	<use x="170" y="150" xlink:href="#p" />
	<use x="180" y="150" xlink:href="#p" />
	<use x="190" y="150" xlink:href="#p" />
	<use x="260" y="150" xlink:href="#p" />
	<use x="270" y="150" xlink:href="#p" />
	<use x="280" y="150" xlink:href="#p" />
	<use x="290" y="150" xlink:href="#p" />
	<use x="320" y="150" xlink:href="#p" />
	<use x="60" y="160" xlink:href="#p" />
	<use x="80" y="160" xlink:href="#p" />
	<use x="100" y="160" xlink:href="#p" />
	<use x="110" y="160" xlink:href="#p" />
	<use x="120" y="160" xlink:href="#p" />
	<use x="130" y="160" xlink:href="#p" />
	<use x="150" y="160" xlink:href="#p" />
	<use x="190" y="160" xlink:href="#p" />
	<use x="200" y="160" xlink:href="#p" />
	<use x="210" y="160" xlink:href="#p" />
	<use x="240" y="160" xlink:href="#p" />
	<use x="290" y="160" xlink:href="#p" />
	<use x="300" y="160" xlink:href="#p" />
	<use x="50" y="170" xlink:href="#p" />
	<use x="70" y="170" xlink:href="#p" />
	<use x="80" y="170" xlink:href="#p" />
	<use x="90" y="170" xlink:href="#p" />
	<use x="120" y="170" xlink:href="#p" />
	<use x="140" y="170" xlink:href="#p" />
	<use x="150" y="170" xlink:href="#p" />
	<use x="170" y="170" xlink:href="#p" />
	<use x="190" y="170" xlink:href="#p" />
	<use x="200" y="170" xlink:href="#p" />
	<use x="210" y="170" xlink:href="#p" />
	<use x="230" y="170" xlink:href="#p" />
	<use x="260" y="170" xlink:href="#p" />
	<use x="310" y="170" xlink:href="#p" />
	<use x="320" y="170" xlink:href="#p" />
	<use x="60" y="180" xlink:href="#p" />
	<use x="70" y="180" xlink:href="#p" />
	<use x="100" y="180" xlink:href="#p" />
	<use x="110" y="180" xlink:href="#p" />
	<use x="120" y="180" xlink:href="#p" />
	<use x="130" y="180" xlink:href="#p" />
	<use x="140" y="180" xlink:href="#p" />
	<use x="160" y="180" xlink:href="#p" />
	<use x="180" y="180" xlink:href="#p" />
	<use x="210" y="180" xlink:href="#p" />
	<use x="220" y="180" xlink:href="#p" />
	<use x="230" y="180" xlink:href="#p" />
	<use x="240" y="180" xlink:href="#p" />
	<use x="250" y="180" xlink:href="#p" />
	<use x="260" y="180" xlink:href="#p" />
	<use x="270" y="180" xlink:href="#p" />
	<use x="280" y="180" xlink:href="#p" />
	<use x="290" y="180" xlink:href="#p" />
	<use x="300" y="180" xlink:href="#p" />
	<use x="310" y="180" xlink:href="#p" />
	<use x="320" y="180" xlink:href="#p" />
	<use x="50" y="190" xlink:href="#p" />
	<use x="60" y="190" xlink:href="#p" />
	<use x="90" y="190" xlink:href="#p" />
	<use x="110" y="190" xlink:href="#p" />
	<use x="120" y="190" xlink:href="#p" />
	<use x="140" y="190" xlink:href="#p" />
	<use x="160" y="190" xlink:href="#p" />
	<use x="170" y="190" xlink:href="#p" />
	<use x="190" y="190" xlink:href="#p" />
	<use x="220" y="190" xlink:href="#p" />
	<use x="240" y="190" xlink:href="#p" />
	<use x="280" y="190" xlink:href="#p" />
	<use x="310" y="190" xlink:href="#p" />
	<use x="60" y="200" xlink:href="#p" />
	<use x="90" y="200" xlink:href="#p" />
	<use x="100" y="200" xlink:href="#p" />
	<use x="140" y="200" xlink:href="#p" />
	<use x="150" y="200" xlink:href="#p" />
	<use x="220" y="200" xlink:href="#p" />
	<use x="240" y="200" xlink:href="#p" />
	<use x="270" y="200" xlink:href="#p" />
	<use x="310" y="200" xlink:href="#p" />
	<use x="50" y="210" xlink:href="#p" />
	<use x="60" y="210" xlink:href="#p" />
	<use x="80" y="210" xlink:href="#p" />
	<use x="110" y="210" xlink:href="#p" />
	<use x="130" y="210" xlink:href="#p" />
	<use x="160" y="210" xlink:href="#p" />
	<use x="170" y="210" xlink:href="#p" />
	<use x="190" y="210" xlink:href="#p" />
	<use x="210" y="210" xlink:href="#p" />
	<use x="240" y="210" xlink:href="#p" />
	<use x="270" y="210" xlink:href="#p" />
	<use x="300" y="210" xlink:href="#p" />
	<use x="310" y="210" xlink:href="#p" />
	<use x="40" y="220" xlink:href="#p" />
	<use x="60" y="220" xlink:href="#p" />
	<use x="70" y="220" xlink:href="#p" />
	<use x="100" y="220" xlink:href="#p" />
	<use x="120" y="220" xlink:href="#p" />
	<use x="140" y="220" xlink:href="#p" />
	<use x="150" y="220" xlink:href="#p" />
	<use x="160" y="220" xlink:href="#p" />
	<use x="190" y="220" xlink:href="#p" />
	<use x="210" y="220" xlink:href="#p" />
	<use x="250" y="220" xlink:href="#p" />
	<use x="280" y="220" xlink:href="#p" />
	<use x="290" y="220" xlink:href="#p" />
	<use x="300" y="220" xlink:href="#p" />
	<use x="80" y="230" xlink:href="#p" />
	<use x="90" y="230" xlink:href="#p" />
	<use x="110" y="230" xlink:href="#p" />
	<use x="160" y="230" xlink:href="#p" />
	<use x="190" y="230" xlink:href="#p" />
	<use x="210" y="230" xlink:href="#p" />
	<use x="220" y="230" xlink:href="#p" />
	<use x="230" y="230" xlink:href="#p" />
	<use x="270" y="230" xlink:href="#p" />
	<use x="300" y="230" xlink:href="#p" />
	<use x="50" y="240" xlink:href="#p" />
	<use x="60" y="240" xlink:href="#p" />
	<use x="100" y="240" xlink:href="#p" />
	<use x="140" y="240" xlink:href="#p" />
	<use x="150" y="240" xlink:href="#p" />
	<use x="160" y="240" xlink:href="#p" />
	<use x="170" y="240" xlink:href="#p" />
	<use x="210" y="240" xlink:href="#p" />
	<use x="220" y="240" xlink:href="#p" />
	<use x="240" y="240" xlink:href="#p" />
	<use x="250" y="240" xlink:href="#p" />
	<use x="260" y="240" xlink:href="#p" />
	<use x="270" y="240" xlink:href="#p" />
	<use x="280" y="240" xlink:href="#p" />
	<use x="290" y="240" xlink:href="#p" />
	<use x="300" y="240" xlink:href="#p" />
	<use x="120" y="250" xlink:href="#p" />
	<use x="160" y="250" xlink:href="#p" />
	<use x="170" y="250" xlink:href="#p" />
	<use x="180" y="250" xlink:href="#p" />
	<use x="200" y="250" xlink:href="#p" />
	<use x="240" y="250" xlink:href="#p" />
	<use x="280" y="250" xlink:href="#p" />
	<use x="290" y="250" xlink:href="#p" />
	<use x="300" y="250" xlink:href="#p" />
	<use x="310" y="250" xlink:href="#p" />
	<use x="320" y="250" xlink:href="#p" />
	<use x="40" y="260" xlink:href="#p" />
	<use x="50" y="260" xlink:href="#p" />
	<use x="60" y="260" xlink:href="#p" />
	<use x="70" y="260" xlink:href="#p" />
	<use x="80" y="260" xlink:href="#p" />
	<use x="90" y="260" xlink:href="#p" />
	<use x="100" y="260" xlink:href="#p" />
	<use x="130" y="260" xlink:href="#p" />
	<use x="140" y="260" xlink:href="#p" />
	<use x="150" y="260" xlink:href="#p" />
	<use x="160" y="260" xlink:href="#p" />
	<use x="170" y="260" xlink:href="#p" />
	<use x="200" y="260" xlink:href="#p" />
	<use x="230" y="260" xlink:href="#p" />
	<use x="240" y="260" xlink:href="#p" />
	<use x="260" y="260" xlink:href="#p" />
	<use x="280" y="260" xlink:href="#p" />
	<use x="290" y="260" xlink:href="#p" />
	<use x="310" y="260" xlink:href="#p" />
	<use x="40" y="270" xlink:href="#p" />
	<use x="100" y="270" xlink:href="#p" />
	<use x="200" y="270" xlink:href="#p" />
	<use x="240" y="270" xlink:href="#p" />
	<use x="280" y="270" xlink:href="#p" />
	<use x="310" y="270" xlink:href="#p" />
	<use x="320" y="270" xlink:href="#p" />
	<use x="40" y="280" xlink:href="#p" />
	<use x="60" y="280" xlink:href="#p" />
	<use x="70" y="280" xlink:href="#p" />
	<use x="80" y="280" xlink:href="#p" />
	<use x="100" y="280" xlink:href="#p" />
	<use x="160" y="280" xlink:href="#p" />
	<use x="180" y="280" xlink:href="#p" />
	<use x="190" y="280" xlink:href="#p" />
	<use x="210" y="280" xlink:href="#p" />
	<use x="220" y="280" xlink:href="#p" />
	<use x="240" y="280" xlink:href="#p" />
	<use x="250" y="280" xlink:href="#p" />
	<use x="260" y="280" xlink:href="#p" />
	<use x="270" y="280" xlink:href="#p" />
	<use x="280" y="280" xlink:href="#p" />
	<use x="290" y="280" xlink:href="#p" />
	<use x="40" y="290" xlink:href="#p" />
	<use x="60" y="290" xlink:href="#p" />
	<use x="70" y="290" xlink:href="#p" />
	<use x="80" y="290" xlink:href="#p" />
	<use x="100" y="290" xlink:href="#p" />
	<use x="120" y="290" xlink:href="#p" />
	<use x="150" y="290" xlink:href="#p" />
	<use x="160" y="290" xlink:href="#p" />
	<use x="180" y="290" xlink:href="#p" />
	<use x="190" y="290" xlink:href="#p" />
	<use x="200" y="290" xlink:href="#p" />
	<use x="210" y="290" xlink:href="#p" />
	<use x="230" y="290" xlink:href="#p" />
	<use x="240" y="290" xlink:href="#p" />
	<use x="250" y="290" xlink:href="#p" />
	<use x="270" y="290" xlink:href="#p" />
	<use x="280" y="290" xlink:href="#p" />
	<use x="300" y="290" xlink:href="#p" />
	<use x="320" y="290" xlink:href="#p" />
	<use x="40" y="300" xlink:href="#p" />
	<use x="60" y="300" xlink:href="#p" />
	<use x="70" y="300" xlink:href="#p" />
	<use x="80" y="300" xlink:href="#p" />
	<use x="100" y="300" xlink:href="#p" />
	<use x="120" y="300" xlink:href="#p" />
	<use x="140" y="300" xlink:href="#p" />
	<use x="150" y="300" xlink:href="#p" />
	<use x="170" y="300" xlink:href="#p" />
	<use x="200" y="300" xlink:href="#p" />
	<use x="260" y="300" xlink:href="#p" />
	<use x="320" y="300" xlink:href="#p" />
	<use x="40" y="310" xlink:href="#p" />
	<use x="100" y="310" xlink:href="#p" />
	<use x="120" y="310" xlink:href="#p" />
	<use x="140" y="310" xlink:href="#p" />
	<use x="150" y="310" xlink:href="#p" />
	<use x="180" y="310" xlink:href="#p" />
	<use x="190" y="310" xlink:href="#p" />
	<use x="200" y="310" xlink:href="#p" />
	<use x="220" y="310" xlink:href="#p" />
	<use x="240" y="310" xlink:href="#p" />
	<use x="290" y="310" xlink:href="#p" />
	<use x="310" y="310" xlink:href="#p" />
	<use x="40" y="320" xlink:href="#p" />
	<use x="50" y="320" xlink:href="#p" />
	<use x="60" y="320" xlink:href="#p" />
	<use x="70" y="320" xlink:href="#p" />
	<use x="80" y="320" xlink:href="#p" />
	<use x="90" y="320" xlink:href="#p" />
	<use x="100" y="320" xlink:href="#p" />
	<use x="120" y="320" xlink:href="#p" />
	<use x="140" y="320" xlink:href="#p" />
	<use x="160" y="320" xlink:href="#p" />
	<use x="180" y="320" xlink:href="#p" />
	<use x="190" y="320" xlink:href="#p" />
	<use x="210" y="320" xlink:href="#p" />
	<use x="220" y="320" xlink:href="#p" />
	<use x="230" y="320" xlink:href="#p" />
	<use x="240" y="320" xlink:href="#p" />
	<use x="250" y="320" xlink:href="#p" />
	<use x="260" y="320" xlink:href="#p" />
	<use x="270" y="320" xlink:href="#p" />
	<use x="290" y="320" xlink:href="#p" />
	<use x="300" y="320" xlink:href="#p" />
	<use x="310" y="320" xlink:href="#p" />
</g>
</svg>